<?xml version="1.0" encoding="UTF-8" standalone="no"?>
<!-- Created with Inkscape (http://www.inkscape.org/) -->

<svg
   xmlns:dc="http://purl.org/dc/elements/1.1/"
   xmlns:cc="http://creativecommons.org/ns#"
   xmlns:rdf="http://www.w3.org/1999/02/22-rdf-syntax-ns#"
   xmlns:svg="http://www.w3.org/2000/svg"
   xmlns="http://www.w3.org/2000/svg"
   xmlns:sodipodi="http://sodipodi.sourceforge.net/DTD/sodipodi-0.dtd"
   xmlns:inkscape="http://www.inkscape.org/namespaces/inkscape"
   width="64"
   height="48"
   id="svg2"
   version="1.1"
   inkscape:version="0.48.2 r9819"
   sodipodi:docname="arotate8.svg">
  <defs
     id="defs4" />
  <sodipodi:namedview
     id="base"
     pagecolor="#ffffff"
     bordercolor="#666666"
     borderopacity="1.0"
     inkscape:pageopacity="0.0"
     inkscape:pageshadow="2"
     inkscape:zoom="11.75"
     inkscape:cx="32"
     inkscape:cy="24"
     inkscape:document-units="px"
     inkscape:current-layer="layer1"
     showgrid="true"
     inkscape:window-width="1280"
     inkscape:window-height="962"
     inkscape:window-x="-8"
     inkscape:window-y="-8"
     inkscape:window-maximized="1"
     objecttolerance="20"
     showguides="true"
     inkscape:snap-from-guide="false"
     gridtolerance="10000">
    <inkscape:grid
       type="xygrid"
       id="grid2989"
       empspacing="8"
       visible="true"
       enabled="true"
       snapvisiblegridlinesonly="true"
       originx="2.7755576e-017px"
       originy="2.7755576e-017px" />
  </sodipodi:namedview>
  <metadata
     id="metadata7">
    <rdf:RDF>
      <cc:Work
         rdf:about="">
        <dc:format>image/svg+xml</dc:format>
        <dc:type
           rdf:resource="http://purl.org/dc/dcmitype/StillImage" />
        <dc:title />
      </cc:Work>
    </rdf:RDF>
  </metadata>
  <g
     inkscape:label="レイヤー 1"
     inkscape:groupmode="layer"
     id="layer1"
     transform="translate(0,-1004.3622)">
    <path
       style="fill:#a4c639;fill-opacity:1;fill-rule:evenodd;stroke:#ffffff;stroke-opacity:1"
       d="M 37.25 2.9375 C 37.08459 2.9285807 36.921008 3.0287098 36.84375 3.1875 L 35.21875 6.5 C 33.733171 6.0939951 32.116311 5.9571562 30.46875 6.1875 C 28.813469 6.418923 27.321568 7.0086047 26 7.8125 L 23.5625 5.0625 C 23.405373 4.8871499 23.11285 4.8428726 22.9375 5 C 22.76215 5.1571274 22.749123 5.4496499 22.90625 5.625 L 25.28125 8.28125 C 22.20927 10.480664 20.410529 14.074522 20.9375 17.84375 L 42.84375 14.78125 C 42.31676 11.011954 39.620089 8.0224878 36.0625 6.75 L 37.59375 3.5625 C 37.696761 3.3507798 37.61797 3.103011 37.40625 3 C 37.35332 2.9742473 37.305137 2.9404731 37.25 2.9375 z M 51.9375 7.65625 C 51.121578 7.7132869 50.347719 8.1728537 49.90625 8.9375 L 44.40625 18.5 C 43.6999 19.723434 44.089066 21.29365 45.3125 22 C 46.535934 22.70635 48.10615 22.285934 48.8125 21.0625 L 54.34375 11.5 C 55.0501 10.276566 54.629684 8.70635 53.40625 8 C 52.947462 7.7351188 52.427053 7.6220279 51.9375 7.65625 z M 17.5625 17.8125 C 16.1498 17.8125 15 18.93105 15 20.34375 L 15 31.40625 C 15 32.81895 16.1498 33.9375 17.5625 33.9375 C 18.9752 33.9375 20.09375 32.81895 20.09375 31.40625 L 20.09375 20.34375 C 20.09375 18.93105 18.9752 17.8125 17.5625 17.8125 z M 20.9375 18.65625 L 20.9375 21.1875 L 20.9375 34.8125 C 20.9375 36.2252 22.0873 37.34375 23.5 37.34375 L 25.1875 37.34375 L 25.1875 42.25 C 25.1875 43.771369 26.3373 45 27.75 45 C 29.1627 45 30.3125 43.771369 30.3125 42.25 L 30.3125 37.34375 L 33.6875 37.34375 L 33.6875 42.25 C 33.6875 43.771369 34.8373 45 36.25 45 C 37.6627 45 38.8125 43.771369 38.8125 42.25 L 38.8125 37.34375 L 40.5 37.34375 C 41.9127 37.34375 43.0625 36.2252 43.0625 34.8125 L 43.0625 21.1875 L 43.0625 18.65625 L 40.5 18.65625 L 23.5 18.65625 L 20.9375 18.65625 z "
       transform="translate(0,1004.3622)"
       id="path12270" />
    <path
       id="path3859"
       d="m 30.483261,1010.5596 c -6.180704,0.8641 -10.558831,6.0873 -9.778823,11.6664 l 22.382305,-3.1293 c -0.780007,-5.579 -6.422779,-9.4012 -12.603482,-8.5371 z"
       style="fill:#ffffff;fill-opacity:1;fill-rule:evenodd;stroke:none"
       inkscape:connector-curvature="0" />
    <path
       inkscape:connector-curvature="0"
       style="fill:#a4c639;fill-opacity:1;fill-rule:evenodd;stroke:none"
       d="m 30.483261,1010.5596 c -6.043963,0.845 -10.311239,6.0527 -9.531232,11.6318 l 21.887122,-3.0601 c -0.780007,-5.579 -6.311928,-9.4167 -12.35589,-8.5717 z"
       id="path3004" />
    <path
       inkscape:connector-curvature="0"
       id="path3849"
       d="m 20.7,1023.0122 0,2.55 0,13.6 c 0,1.4127 1.163031,2.55 2.607692,2.55 l 17.384616,0 c 1.444661,0 2.607692,-1.1373 2.607692,-2.55 l 0,-13.6 0,-2.55 -2.607692,0 -17.384616,0 -2.607692,0 z"
       style="fill:#ffffff;fill-opacity:1;stroke:none" />
    <path
       style="fill:#a4c639;fill-opacity:1;stroke:none"
       d="m 20.95,1023.0122 0,2.55 0,13.6 c 0,1.4127 1.1373,2.55 2.55,2.55 l 17,0 c 1.4127,0 2.55,-1.1373 2.55,-2.55 l 0,-13.6 0,-2.55 -2.55,0 -17,0 -2.55,0 z"
       id="rect3783"
       inkscape:connector-curvature="0" />
    <rect
       style="fill:#a4c639;fill-opacity:1;stroke:none"
       id="rect3786"
       width="5.0999999"
       height="11.9"
       x="25.200001"
       y="1037.4622"
       rx="2.55"
       ry="2.7461538" />
    <rect
       ry="2.7461538"
       rx="2.55"
       y="1037.4622"
       x="33.700001"
       height="11.9"
       width="5.0999999"
       id="rect3788"
       style="fill:#a4c639;fill-opacity:1;stroke:none" />
    <rect
       ry="2.55"
       rx="2.55"
       y="-866.18628"
       x="-554.98151"
       height="16.150015"
       width="5.0999999"
       id="rect3843"
       style="fill:#a4c639;fill-opacity:1;stroke:#ffffff;stroke-width:0.5;stroke-miterlimit:4;stroke-opacity:1;stroke-dasharray:none"
       transform="matrix(-0.8660254,-0.5,0.5,-0.8660254,0,0)" />
    <rect
       style="fill:#a4c639;fill-opacity:1;stroke:none"
       id="rect3790"
       width="5.0999999"
       height="16.150015"
       x="-554.98151"
       y="-866.18628"
       rx="2.55"
       ry="2.55"
       transform="matrix(-0.8660254,-0.5,0.5,-0.8660254,0,0)" />
    <rect
       style="fill:#a4c639;fill-opacity:1;stroke:#ffffff;stroke-width:0.5;stroke-miterlimit:4;stroke-opacity:1;stroke-dasharray:none"
       id="rect3833"
       width="5.0999999"
       height="16.150015"
       x="15"
       y="1022.1623"
       rx="2.55"
       ry="2.55" />
    <rect
       ry="2.55"
       rx="2.55"
       y="1022.1623"
       x="15"
       height="16.150015"
       width="5.0999999"
       id="rect3792"
       style="fill:#a4c639;fill-opacity:1;stroke:none" />
    <rect
       style="fill:#a4c639;fill-opacity:1;stroke:none"
       id="rect3794"
       width="0.85000002"
       height="5.9499998"
       x="-656.9411"
       y="767.04297"
       rx="2.55"
       ry="0.42500001"
       transform="matrix(0.74474469,-0.6673495,0.6673495,0.74474469,0,0)"
       inkscape:transform-center-x="-3.7735786"
       inkscape:transform-center-y="-10.569715" />
    <path
       sodipodi:type="arc"
       style="fill:#ffffff;fill-opacity:1;stroke:none"
       id="path3798"
       sodipodi:cx="19"
       sodipodi:cy="10"
       sodipodi:rx="1.5"
       sodipodi:ry="1.5"
       d="m 20.5,10 c 0,0.828427 -0.671573,1.5 -1.5,1.5 -0.828427,0 -1.5,-0.671573 -1.5,-1.5 0,-0.8284271 0.671573,-1.5 1.5,-1.5 0.828427,0 1.5,0.6715729 1.5,1.5 z"
       transform="matrix(0.70151032,-0.09807845,0.09808009,0.701522,11.811998,1011.3968)"
       inkscape:transform-center-x="-4.9608471"
       inkscape:transform-center-y="-5.6137165" />
    <rect
       inkscape:transform-center-y="-12.131204"
       inkscape:transform-center-x="-14.942161"
       transform="matrix(-0.89921511,-0.43750679,-0.43750679,0.89921511,0,0)"
       ry="0.42500001"
       rx="2.55"
       y="889.4649"
       x="-474.78461"
       height="5.9499998"
       width="0.85000002"
       id="rect3809"
       style="fill:#a4c639;fill-opacity:1;stroke:none" />
    <path
       transform="matrix(-0.70151032,0.09807845,0.09808009,0.701522,48.668185,1006.2439)"
       d="m 20.5,10 c 0,0.828427 -0.671573,1.5 -1.5,1.5 -0.828427,0 -1.5,-0.671573 -1.5,-1.5 0,-0.8284271 0.671573,-1.5 1.5,-1.5 0.828427,0 1.5,0.6715729 1.5,1.5 z"
       sodipodi:ry="1.5"
       sodipodi:rx="1.5"
       sodipodi:cy="10"
       sodipodi:cx="19"
       id="path3811"
       style="fill:#ffffff;fill-opacity:1;stroke:none"
       sodipodi:type="arc"
       inkscape:transform-center-x="-15.159642"
       inkscape:transform-center-y="-7.0396317" />
  </g>
</svg>
