<?xml version="1.0" encoding="UTF-8" standalone="no"?>
<!-- Created with Inkscape (http://www.inkscape.org/) -->

<svg
   xmlns:dc="http://purl.org/dc/elements/1.1/"
   xmlns:cc="http://creativecommons.org/ns#"
   xmlns:rdf="http://www.w3.org/1999/02/22-rdf-syntax-ns#"
   xmlns:svg="http://www.w3.org/2000/svg"
   xmlns="http://www.w3.org/2000/svg"
   xmlns:sodipodi="http://sodipodi.sourceforge.net/DTD/sodipodi-0.dtd"
   xmlns:inkscape="http://www.inkscape.org/namespaces/inkscape"
   width="64"
   height="48"
   id="svg2"
   version="1.1"
   inkscape:version="0.48.2 r9819"
   sodipodi:docname="down3.svg">
  <defs
     id="defs4" />
  <sodipodi:namedview
     id="base"
     pagecolor="#ffffff"
     bordercolor="#666666"
     borderopacity="1.0"
     inkscape:pageopacity="0.0"
     inkscape:pageshadow="2"
     inkscape:zoom="15.270833"
     inkscape:cx="18.968623"
     inkscape:cy="24.000001"
     inkscape:document-units="px"
     inkscape:current-layer="layer1"
     showgrid="true"
     inkscape:window-width="1280"
     inkscape:window-height="962"
     inkscape:window-x="-8"
     inkscape:window-y="-8"
     inkscape:window-maximized="1"
     objecttolerance="20"
     showguides="true"
     inkscape:snap-from-guide="false"
     gridtolerance="10000">
    <inkscape:grid
       type="xygrid"
       id="grid2989"
       empspacing="8"
       visible="true"
       enabled="true"
       snapvisiblegridlinesonly="true"
       originx="2.7755576e-017px"
       originy="2.7755576e-017px" />
  </sodipodi:namedview>
  <metadata
     id="metadata7">
    <rdf:RDF>
      <cc:Work
         rdf:about="">
        <dc:format>image/svg+xml</dc:format>
        <dc:type
           rdf:resource="http://purl.org/dc/dcmitype/StillImage" />
        <dc:title />
      </cc:Work>
    </rdf:RDF>
  </metadata>
  <g
     inkscape:label="レイヤー 1"
     inkscape:groupmode="layer"
     id="layer1"
     transform="translate(0,-1004.3622)">
    <path
       style="fill:#a4c639;fill-opacity:1;fill-rule:evenodd;stroke:#ffffff;stroke-opacity:1"
       d="M 26.1875 4.71875 C 26.132492 4.723546 26.083299 4.7225099 26.03125 4.75 C 25.823054 4.8599606 25.765039 5.1355545 25.875 5.34375 L 27.53125 8.46875 C 24.005144 9.8536437 21.402916 12.925155 21 16.71875 L 42.96875 19.0625 C 43.370774 15.27731 41.456511 11.752678 38.3125 9.65625 L 40.59375 6.90625 C 40.744989 6.7257964 40.742954 6.4637389 40.5625 6.3125 C 40.382046 6.1612611 40.119989 6.1632964 39.96875 6.34375 L 37.59375 9.1875 C 36.248373 8.4304833 34.720964 7.9261598 33.0625 7.75 C 31.416442 7.5751851 29.809084 7.7376317 28.34375 8.1875 L 26.625 4.9375 C 26.54253 4.7813534 26.352524 4.7043621 26.1875 4.71875 z M 17.09375 16.34375 C 15.914167 16.428022 14.958539 17.231726 14.84375 18.3125 L 13.8125 27.96875 C 13.681313 29.20392 14.720201 30.319547 16.125 30.46875 C 17.529799 30.617953 18.743813 29.73517 18.875 28.5 L 19.90625 18.84375 C 20.037437 17.60858 19.029799 16.492953 17.625 16.34375 C 17.4494 16.3251 17.262262 16.331711 17.09375 16.34375 z M 20.90625 17.5625 L 20.625 20.09375 L 19.1875 33.625 C 19.038297 35.0298 20.063951 36.2883 21.46875 36.4375 L 23.65625 36.65625 L 23.65625 42.25 C 23.65625 43.771369 24.80605 45 26.21875 45 C 27.63145 45 28.78125 43.771369 28.78125 42.25 L 28.78125 37.21875 L 32.15625 37.5625 L 32.15625 41.5 C 32.15625 42.893528 33.30605 44 34.71875 44 C 36.13145 44 37.28125 42.893528 37.28125 41.5 L 37.28125 38.09375 L 38.375 38.21875 C 39.779799 38.36795 41.038297 37.3423 41.1875 35.9375 L 42.625 22.4375 L 42.875 19.90625 L 40.34375 19.625 L 23.4375 17.8125 L 20.90625 17.5625 z M 45.84375 19.40625 C 44.664167 19.490522 43.708539 20.294226 43.59375 21.375 L 42.5625 31.03125 C 42.431313 32.26642 43.438951 33.382047 44.84375 33.53125 C 46.248549 33.680453 47.493813 32.79767 47.625 31.5625 L 48.65625 21.90625 C 48.787437 20.67108 47.748549 19.555453 46.34375 19.40625 C 46.16815 19.3876 46.012262 19.394211 45.84375 19.40625 z "
       transform="translate(0,1004.3622)"
       id="path7622" />
    <path
       id="path3859"
       d="m 33.062895,1012.0994 c 6.205913,0.6592 10.754484,5.7346 10.159519,11.3364 l -22.473599,-2.3869 c 0.594966,-5.6018 6.108167,-9.6086 12.31408,-8.9495 z"
       style="fill:#ffffff;fill-opacity:1;fill-rule:evenodd;stroke:none"
       inkscape:connector-curvature="0" />
    <path
       inkscape:connector-curvature="0"
       style="fill:#a4c639;fill-opacity:1;fill-rule:evenodd;stroke:none"
       d="m 33.062895,1012.0994 c 6.068615,0.6446 10.505882,5.7082 9.910917,11.31 l -21.976395,-2.3341 c 0.594965,-5.6018 5.996864,-9.6204 12.065478,-8.9759 z"
       id="path3004" />
    <path
       inkscape:connector-curvature="0"
       id="path3849"
       d="m 43.132641,1024.2811 -0.26932,2.5357 -1.436374,13.524 c -0.149203,1.4048 -1.425846,2.4129 -2.862427,2.2603 l -17.287385,-1.8361 c -1.436581,-0.1526 -2.47299,-1.4064 -2.323787,-2.8112 l 1.436374,-13.5239 0.26932,-2.5357 2.593107,0.2754 17.287385,1.8361 2.593107,0.2754 z"
       style="fill:#ffffff;fill-opacity:1;stroke:none" />
    <path
       style="fill:#a4c639;fill-opacity:1;stroke:none"
       d="m 42.884039,1024.2547 -0.26932,2.5357 -1.436374,13.524 c -0.149203,1.4048 -1.400259,2.4156 -2.805058,2.2664 l -16.904919,-1.7955 c -1.404799,-0.1492 -2.415621,-1.4003 -2.266418,-2.8051 l 1.436374,-13.5239 0.26932,-2.5357 2.535738,0.2693 16.904919,1.7955 2.535738,0.2693 z"
       id="rect3783"
       inkscape:connector-curvature="0" />
    <rect
       style="fill:#a4c639;fill-opacity:1;stroke:none"
       id="rect3786"
       width="5.0999999"
       height="10.900042"
       x="-37.271473"
       y="1037.4622"
       rx="2.55"
       ry="2.5153942"
       transform="scale(-1,1)" />
    <rect
       ry="2.7461538"
       rx="2.55"
       y="1037.4622"
       x="-28.771473"
       height="11.9"
       width="5.0999999"
       id="rect3788"
       style="fill:#a4c639;fill-opacity:1;stroke:none"
       transform="scale(-1,1)" />
    <rect
       ry="2.2420886"
       rx="2.55"
       y="1013.1469"
       x="-127.87158"
       height="14.199907"
       width="5.0999999"
       id="rect3843"
       style="fill:#a4c639;fill-opacity:1;stroke:#ffffff;stroke-width:0.46884176;stroke-miterlimit:4;stroke-opacity:1;stroke-dasharray:none"
       transform="matrix(-0.99440702,-0.10561572,-0.10561572,0.99440702,0,0)" />
    <rect
       style="fill:#a4c639;fill-opacity:1;stroke:none"
       id="rect3790"
       width="5.0999999"
       height="14.199907"
       x="-127.87158"
       y="1013.1469"
       rx="2.55"
       ry="2.2420886"
       transform="matrix(-0.99440702,-0.10561572,-0.10561572,0.99440702,0,0)" />
    <rect
       style="fill:#a4c639;fill-opacity:1;stroke:#ffffff;stroke-width:0.46884176;stroke-miterlimit:4;stroke-opacity:1;stroke-dasharray:none"
       id="rect3833"
       width="5.0999999"
       height="14.199907"
       x="-156.77159"
       y="1013.1469"
       rx="2.55"
       ry="2.2420886"
       transform="matrix(-0.99440702,-0.10561572,-0.10561572,0.99440702,0,0)" />
    <rect
       ry="2.2420886"
       rx="2.55"
       y="1013.1469"
       x="-156.77159"
       height="14.199907"
       width="5.0999999"
       id="rect3792"
       style="fill:#a4c639;fill-opacity:1;stroke:none"
       transform="matrix(-0.99440702,-0.10561572,-0.10561572,0.99440702,0,0)" />
    <rect
       style="fill:#a4c639;fill-opacity:1;stroke:none"
       id="rect3794"
       width="0.85000002"
       height="5.9499998"
       x="-680.69873"
       y="748.54675"
       rx="2.55"
       ry="0.42500001"
       transform="matrix(-0.76642001,-0.64233976,-0.64233976,0.76642001,0,0)"
       inkscape:transform-center-x="-8.1716245"
       inkscape:transform-center-y="-23.550334" />
    <path
       sodipodi:type="arc"
       style="fill:#ffffff;fill-opacity:1;stroke:none"
       id="path3798"
       sodipodi:cx="19"
       sodipodi:cy="10"
       sodipodi:rx="1.5"
       sodipodi:ry="1.5"
       d="m 20.5,10 c 0,0.828427 -0.671573,1.5 -1.5,1.5 -0.828427,0 -1.5,-0.671573 -1.5,-1.5 0,-0.8284271 0.671573,-1.5 1.5,-1.5 0.828427,0 1.5,0.6715729 1.5,1.5 z"
       transform="matrix(-0.70437164,-0.07481114,-0.07481239,0.70438336,51.751632,1012.3183)"
       inkscape:transform-center-x="-8.9362181"
       inkscape:transform-center-y="-23.197228" />
    <rect
       inkscape:transform-center-y="-24.741402"
       inkscape:transform-center-x="3.0425521"
       transform="matrix(0.88424516,-0.46702302,0.46702302,0.88424516,0,0)"
       ry="0.42500001"
       rx="2.55"
       y="904.47626"
       x="-448.68497"
       height="5.9499998"
       width="0.85000002"
       id="rect3809"
       style="fill:#a4c639;fill-opacity:1;stroke:none" />
    <path
       transform="matrix(0.70437164,0.07481114,-0.07481239,0.70438336,14.745116,1008.3879)"
       d="m 20.5,10 c 0,0.828427 -0.671573,1.5 -1.5,1.5 -0.828427,0 -1.5,-0.671573 -1.5,-1.5 0,-0.8284271 0.671573,-1.5 1.5,-1.5 0.828427,0 1.5,0.6715729 1.5,1.5 z"
       sodipodi:ry="1.5"
       sodipodi:rx="1.5"
       sodipodi:cy="10"
       sodipodi:cx="19"
       id="path3811"
       style="fill:#ffffff;fill-opacity:1;stroke:none"
       sodipodi:type="arc"
       inkscape:transform-center-x="3.8642742"
       inkscape:transform-center-y="-24.556716" />
  </g>
</svg>
