<?xml version="1.0" encoding="UTF-8" standalone="no"?>
<!-- Created with Inkscape (http://www.inkscape.org/) -->

<svg
   xmlns:dc="http://purl.org/dc/elements/1.1/"
   xmlns:cc="http://creativecommons.org/ns#"
   xmlns:rdf="http://www.w3.org/1999/02/22-rdf-syntax-ns#"
   xmlns:svg="http://www.w3.org/2000/svg"
   xmlns="http://www.w3.org/2000/svg"
   xmlns:sodipodi="http://sodipodi.sourceforge.net/DTD/sodipodi-0.dtd"
   xmlns:inkscape="http://www.inkscape.org/namespaces/inkscape"
   width="64"
   height="48"
   id="svg2"
   version="1.1"
   inkscape:version="0.48.2 r9819"
   sodipodi:docname="dwright1.svg">
  <defs
     id="defs4" />
  <sodipodi:namedview
     id="base"
     pagecolor="#ffffff"
     bordercolor="#666666"
     borderopacity="1.0"
     inkscape:pageopacity="0.0"
     inkscape:pageshadow="2"
     inkscape:zoom="11.75"
     inkscape:cx="32"
     inkscape:cy="24"
     inkscape:document-units="px"
     inkscape:current-layer="layer1"
     showgrid="true"
     inkscape:window-width="1280"
     inkscape:window-height="962"
     inkscape:window-x="-8"
     inkscape:window-y="-8"
     inkscape:window-maximized="1"
     objecttolerance="20"
     showguides="true"
     inkscape:snap-from-guide="false"
     gridtolerance="10000">
    <inkscape:grid
       type="xygrid"
       id="grid2989"
       empspacing="8"
       visible="true"
       enabled="true"
       snapvisiblegridlinesonly="true"
       originx="2.7755576e-017px"
       originy="2.7755576e-017px" />
  </sodipodi:namedview>
  <metadata
     id="metadata7">
    <rdf:RDF>
      <cc:Work
         rdf:about="">
        <dc:format>image/svg+xml</dc:format>
        <dc:type
           rdf:resource="http://purl.org/dc/dcmitype/StillImage" />
        <dc:title />
      </cc:Work>
    </rdf:RDF>
  </metadata>
  <g
     inkscape:label="レイヤー 1"
     inkscape:groupmode="layer"
     id="layer1"
     transform="translate(0,-1004.3622)">
    <path
       style="fill:#a4c639;fill-opacity:1;stroke:#ffffff;stroke-opacity:1"
       d="M 28.15625 5.3125 C 28.101376 5.3063596 28.056446 5.3270582 28 5.34375 C 27.774215 5.4105172 27.651983 5.6179651 27.71875 5.84375 L 28.40625 8.15625 C 24.068559 9.5333053 20.9375 13.341068 20.9375 17.8125 L 21.4375 17.8125 L 42.46875 17.8125 L 43.0625 17.8125 C 43.0625 14.087243 40.886659 10.842707 37.65625 9.0625 L 38.84375 5.875 C 38.925522 5.654206 38.814544 5.4255222 38.59375 5.34375 C 38.372956 5.2619778 38.113022 5.372956 38.03125 5.59375 L 36.90625 8.6875 C 35.428533 8.0108093 33.761397 7.59375 32 7.59375 C 31.035816 7.59375 30.110295 7.7233208 29.21875 7.9375 L 28.53125 5.625 C 28.481175 5.4556613 28.320873 5.3309213 28.15625 5.3125 z M 42.46875 17.8125 C 41.70857 17.8125 41.028898 18.13192 40.5625 18.65625 L 40.5 18.65625 L 23.5 18.65625 L 23.34375 18.65625 C 22.877352 18.13192 22.19768 17.8125 21.4375 17.8125 C 20.0248 17.8125 18.875 18.93105 18.875 20.34375 L 18.875 31.40625 C 18.875 32.652714 19.758753 33.680618 20.9375 33.90625 L 20.9375 34.8125 C 20.9375 36.2252 22.0873 37.34375 23.5 37.34375 L 26.4375 37.34375 L 26.4375 42.25 C 26.4375 43.771369 27.5873 45 29 45 C 30.4127 45 31.53125 43.771369 31.53125 42.25 L 31.53125 37.34375 L 32.53125 37.34375 L 32.53125 42.25 C 32.53125 43.771369 33.6498 45 35.0625 45 C 36.4752 45 37.625 43.771369 37.625 42.25 L 37.625 37.34375 L 40.5 37.34375 C 41.9127 37.34375 43.0625 36.2252 43.0625 34.8125 L 43.0625 33.875 C 44.179429 33.603459 45.03125 32.609056 45.03125 31.40625 L 45.03125 20.34375 C 45.03125 18.93105 43.88145 17.8125 42.46875 17.8125 z "
       transform="translate(0,1004.3622)"
       id="rect15184" />
    <rect
       ry="2.55"
       rx="2.55"
       y="1022.1623"
       x="39.917351"
       height="16.150015"
       width="5.0999999"
       id="rect3843"
       style="fill:#a4c639;fill-opacity:1;stroke:#ffffff;stroke-width:0.5;stroke-miterlimit:4;stroke-opacity:1;stroke-dasharray:none" />
    <rect
       style="fill:#a4c639;fill-opacity:1;stroke:none"
       id="rect3790"
       width="5.0999999"
       height="16.150015"
       x="39.917351"
       y="1022.1623"
       rx="2.55"
       ry="2.55" />
    <path
       id="path3859"
       d="m 32,1011.9622 c -6.240818,0 -11.3,4.5667 -11.3,10.2 l 22.6,0 c 0,-5.6333 -5.059182,-10.2 -11.3,-10.2 z"
       style="fill:#ffffff;fill-opacity:1;fill-rule:evenodd;stroke:none"
       inkscape:connector-curvature="0" />
    <path
       inkscape:connector-curvature="0"
       style="fill:#a4c639;fill-opacity:1;fill-rule:evenodd;stroke:none"
       d="m 32,1011.9622 c -6.102747,0 -11.05,4.5667 -11.05,10.2 l 22.1,0 c 0,-5.6333 -4.947253,-10.2 -11.05,-10.2 z"
       id="path3004" />
    <path
       inkscape:connector-curvature="0"
       id="path3849"
       d="m 20.7,1022.7622 0,2.5841 0,13.7818 c 0,1.4316 1.163031,2.5841 2.607692,2.5841 l 17.384616,0 c 1.444661,0 2.607692,-1.1525 2.607692,-2.5841 l 0,-13.7818 0,-2.5841 -2.607692,0 -17.384616,0 -2.607692,0 z"
       style="fill:#ffffff;fill-opacity:1;stroke:none" />
    <path
       style="fill:#a4c639;fill-opacity:1;stroke:none"
       d="m 20.95,1023.0122 0,2.55 0,13.6 c 0,1.4127 1.1373,2.55 2.55,2.55 l 17,0 c 1.4127,0 2.55,-1.1373 2.55,-2.55 l 0,-13.6 0,-2.55 -2.55,0 -17,0 -2.55,0 z"
       id="rect3783"
       inkscape:connector-curvature="0" />
    <rect
       style="fill:#a4c639;fill-opacity:1;stroke:none"
       id="rect3786"
       width="5.0999999"
       height="11.9"
       x="26.444"
       y="1037.4622"
       rx="2.55"
       ry="2.7461538" />
    <rect
       ry="2.7461538"
       rx="2.55"
       y="1037.4622"
       x="32.526001"
       height="11.9"
       width="5.0999999"
       id="rect3788"
       style="fill:#a4c639;fill-opacity:1;stroke:none" />
    <rect
       style="fill:#a4c639;fill-opacity:1;stroke:#ffffff;stroke-width:0.5;stroke-miterlimit:4;stroke-opacity:1;stroke-dasharray:none"
       id="rect3833"
       width="5.0999999"
       height="16.150015"
       x="18.881966"
       y="1022.1623"
       rx="2.55"
       ry="2.55" />
    <rect
       ry="2.55"
       rx="2.55"
       y="1022.1623"
       x="18.881966"
       height="16.150015"
       width="5.0999999"
       id="rect3792"
       style="fill:#a4c639;fill-opacity:1;stroke:none" />
    <rect
       style="fill:#a4c639;fill-opacity:1;stroke:none"
       id="rect3794"
       width="0.85000002"
       height="5.9499998"
       x="-259.8988"
       y="976.18469"
       rx="2.55"
       ry="0.42500001"
       transform="matrix(0.95895068,-0.28357289,0.28357289,0.95895068,0,0)"
       inkscape:transform-center-x="0.4433745"
       inkscape:transform-center-y="-1.7137888" />
    <path
       sodipodi:type="arc"
       style="fill:#ffffff;fill-opacity:1;stroke:none"
       id="path3798"
       sodipodi:cx="19"
       sodipodi:cy="10"
       sodipodi:rx="1.5"
       sodipodi:ry="1.5"
       d="m 20.5,10 c 0,0.828427 -0.671573,1.5 -1.5,1.5 -0.828427,0 -1.5,-0.671573 -1.5,-1.5 0,-0.8284271 0.671573,-1.5 1.5,-1.5 0.828427,0 1.5,0.6715729 1.5,1.5 z"
       transform="matrix(0.70833334,0,0,0.70834513,18.299138,1010.206)" />
    <rect
       inkscape:transform-center-y="-1.9594088"
       inkscape:transform-center-x="-0.69515868"
       transform="matrix(-0.93775337,-0.34730192,-0.34730192,0.93775337,0,0)"
       ry="0.42500001"
       rx="2.55"
       y="933.44983"
       x="-387.28156"
       height="5.9499998"
       width="0.85000002"
       id="rect3809"
       style="fill:#a4c639;fill-opacity:1;stroke:none" />
    <path
       transform="matrix(-0.70833334,0,0,0.70834513,52.497584,1010.206)"
       d="m 20.5,10 c 0,0.828427 -0.671573,1.5 -1.5,1.5 -0.828427,0 -1.5,-0.671573 -1.5,-1.5 0,-0.8284271 0.671573,-1.5 1.5,-1.5 0.828427,0 1.5,0.6715729 1.5,1.5 z"
       sodipodi:ry="1.5"
       sodipodi:rx="1.5"
       sodipodi:cy="10"
       sodipodi:cx="19"
       id="path3811"
       style="fill:#ffffff;fill-opacity:1;stroke:none"
       sodipodi:type="arc" />
  </g>
</svg>
