<?xml version="1.0" encoding="UTF-8" standalone="no"?>
<!-- Created with Inkscape (http://www.inkscape.org/) -->

<svg
   xmlns:dc="http://purl.org/dc/elements/1.1/"
   xmlns:cc="http://creativecommons.org/ns#"
   xmlns:rdf="http://www.w3.org/1999/02/22-rdf-syntax-ns#"
   xmlns:svg="http://www.w3.org/2000/svg"
   xmlns="http://www.w3.org/2000/svg"
   xmlns:sodipodi="http://sodipodi.sourceforge.net/DTD/sodipodi-0.dtd"
   xmlns:inkscape="http://www.inkscape.org/namespaces/inkscape"
   width="72"
   height="72"
   id="svg2"
   version="1.1"
   inkscape:version="0.48.2 r9819"
   sodipodi:docname="icon.svg">
  <defs
     id="defs4" />
  <sodipodi:namedview
     id="base"
     pagecolor="#ffffff"
     bordercolor="#666666"
     borderopacity="1.0"
     inkscape:pageopacity="0.0"
     inkscape:pageshadow="2"
     inkscape:zoom="10.180556"
     inkscape:cx="18.957709"
     inkscape:cy="36"
     inkscape:document-units="px"
     inkscape:current-layer="layer1"
     showgrid="true"
     inkscape:window-width="1280"
     inkscape:window-height="962"
     inkscape:window-x="-8"
     inkscape:window-y="-8"
     inkscape:window-maximized="1"
     objecttolerance="20"
     showguides="true"
     inkscape:snap-from-guide="true"
     gridtolerance="10000">
    <inkscape:grid
       type="xygrid"
       id="grid2989"
       empspacing="8"
       visible="true"
       enabled="true"
       snapvisiblegridlinesonly="true"
       originx="2.7755576e-017px"
       originy="2.7755576e-017px" />
  </sodipodi:namedview>
  <metadata
     id="metadata7">
    <rdf:RDF>
      <cc:Work
         rdf:about="">
        <dc:format>image/svg+xml</dc:format>
        <dc:type
           rdf:resource="http://purl.org/dc/dcmitype/StillImage" />
        <dc:title />
      </cc:Work>
    </rdf:RDF>
  </metadata>
  <g
     inkscape:label="レイヤー 1"
     inkscape:groupmode="layer"
     id="layer1"
     transform="translate(0,-980.3622)">
    <path
       style="fill:none;fill-opacity:1;stroke:#ffffff;stroke-opacity:1;stroke-width:2;stroke-miterlimit:4;stroke-dasharray:none"
       d="M 40.75 1.125 C 40.47722 1.1088299 40.222593 1.2699901 40.09375 1.53125 L 37.40625 6.96875 C 34.954946 6.2824838 32.288063 6.0712371 29.5625 6.4375 C 26.848828 6.8021128 24.364004 7.7002161 22.1875 9 L 18.15625 4.46875 C 17.898599 4.1781083 17.446889 4.1485968 17.15625 4.40625 C 16.865611 4.6639032 16.836099 5.1156083 17.09375 5.40625 L 20.96875 9.78125 C 15.874437 13.381506 12.913245 19.304034 13.75 25.53125 L 49.875 20.6875 C 49.038073 14.459004 44.615776 9.5332983 38.75 7.40625 L 41.34375 2.125 C 41.51554 1.7766534 41.379594 1.3592917 41.03125 1.1875 C 40.944164 1.1445521 40.840927 1.13039 40.75 1.125 z M 64.625 9.8125 C 63.279656 9.9150873 62.032778 10.671547 61.3125 11.9375 L 52.28125 27.78125 C 51.128806 29.806775 51.849475 32.347556 53.875 33.5 C 55.900525 34.652444 58.441306 33.963025 59.59375 31.9375 L 68.625 16.09375 C 69.777444 14.068225 69.056775 11.496194 67.03125 10.34375 C 66.271678 9.9115835 65.432206 9.7509476 64.625 9.8125 z M 8.15625 26.125 C 5.8258255 26.125 3.9375 28.013325 3.9375 30.34375 L 3.9375 48.5625 C 3.9375 50.892925 5.8258255 52.78125 8.15625 52.78125 C 10.486675 52.78125 12.34375 50.892925 12.34375 48.5625 L 12.34375 30.34375 C 12.34375 28.013325 10.486675 26.125 8.15625 26.125 z M 13.75 27.53125 L 13.75 31.75 L 13.75 54.1875 C 13.75 56.5179 15.638327 58.375 17.96875 58.375 L 20.75 58.375 L 20.75 66.46875 C 20.75 68.978438 22.638325 71 24.96875 71 C 27.299175 71 29.1875 68.978438 29.1875 66.46875 L 29.1875 58.375 L 34.78125 58.375 L 34.78125 66.46875 C 34.78125 68.978438 36.669575 71 39 71 C 41.330425 71 43.1875 68.978438 43.1875 66.46875 L 43.1875 58.375 L 46 58.375 C 48.330425 58.375 50.21875 56.5179 50.21875 54.1875 L 50.21875 31.75 L 50.21875 27.53125 L 46 27.53125 L 17.96875 27.53125 L 13.75 27.53125 z "
       transform="translate(0,980.3622)"
       id="path3835" />
    <path
       style="fill:#a4c639;fill-opacity:1;stroke:none"
       d="m 13.749842,1007.8934 0,4.2065 0,22.435 c 0,2.3304 1.876117,4.2066 4.20654,4.2066 l 28.043618,0 c 2.330425,0 4.206543,-1.8762 4.206543,-4.2066 l 0,-22.435 0,-4.2065 -4.206543,0 -28.043618,0 -4.20654,0 z"
       id="rect3783"
       inkscape:connector-curvature="0" />
    <rect
       style="fill:#a4c639;fill-opacity:1;stroke:none"
       id="rect3786"
       width="8.413085"
       height="19.630531"
       x="20.760746"
       y="1031.7303"
       rx="4.2065425"
       ry="4.5301228" />
    <rect
       ry="4.5301228"
       rx="4.2065425"
       y="1031.7303"
       x="34.782555"
       height="19.630531"
       width="8.413085"
       id="rect3788"
       style="fill:#a4c639;fill-opacity:1;stroke:none" />
    <rect
       style="fill:#a4c639;fill-opacity:1;stroke:none"
       id="rect3790"
       width="8.413085"
       height="26.641459"
       x="-552.40466"
       y="-854.59155"
       rx="4.2065425"
       ry="4.2065425"
       inkscape:transform-center-y="-8.1435225"
       transform="matrix(-0.86916563,-0.49452109,0.49452109,-0.86916563,0,0)"
       inkscape:transform-center-x="-4.6333967" />
    <rect
       ry="4.2065425"
       rx="4.2065425"
       y="1006.4913"
       x="3.9345751"
       height="26.641459"
       width="8.413085"
       id="rect3792"
       style="fill:#a4c639;fill-opacity:1;stroke:none" />
    <path
       inkscape:connector-curvature="0"
       style="fill:#a4c639;fill-opacity:1;fill-rule:evenodd;stroke:none"
       d="m 29.574885,986.78746 c -9.977493,1.34059 -17.062599,9.89374 -15.825045,19.10374 l 36.131667,-4.8551 C 48.643952,991.82609 39.552364,985.44668 29.574885,986.78746 z"
       id="path3004"
       inkscape:transform-center-x="-17.995816"
       inkscape:transform-center-y="-9.6408915" />
    <rect
       style="fill:#a4c639;fill-opacity:1;stroke:none"
       id="rect3794"
       width="1.4021744"
       height="9.8152294"
       x="-641.12036"
       y="748.27893"
       rx="4.2065229"
       ry="0.70108789"
       transform="matrix(0.74829437,-0.66336682,0.66336062,0.74829986,0,0)"
       inkscape:transform-center-x="-6.6623881"
       inkscape:transform-center-y="-17.448896" />
    <path
       sodipodi:type="arc"
       style="fill:#ffffff;fill-opacity:1;stroke:none"
       id="path3798"
       sodipodi:cx="19"
       sodipodi:cy="10"
       sodipodi:rx="1.5"
       sodipodi:ry="1.5"
       d="m 20.5,10 a 1.5,1.5 0 1 1 -3,0 1.5,1.5 0 1 1 3,0 z"
       transform="matrix(1.1580662,-0.15561174,0.15561304,1.1580952,-1.23237,988.00387)"
       inkscape:transform-center-x="-8.5772488"
       inkscape:transform-center-y="-9.2630264" />
    <rect
       inkscape:transform-center-y="-19.926316"
       inkscape:transform-center-x="-25.09983"
       transform="matrix(-0.89686493,-0.44230454,-0.4422986,0.89686785,0,0)"
       ry="0.70108932"
       rx="4.2065144"
       y="862.18634"
       x="-471.63483"
       height="9.8152494"
       width="1.4021715"
       id="rect3809"
       style="fill:#a4c639;fill-opacity:1;stroke:none" />
    <path
       transform="matrix(-1.1580662,0.15561174,0.15561304,1.1580952,59.610513,979.8284)"
       d="m 20.5,10 a 1.5,1.5 0 1 1 -3,0 1.5,1.5 0 1 1 3,0 z"
       sodipodi:ry="1.5"
       sodipodi:rx="1.5"
       sodipodi:cy="10"
       sodipodi:cx="19"
       id="path3811"
       style="fill:#ffffff;fill-opacity:1;stroke:none"
       sodipodi:type="arc"
       inkscape:transform-center-x="-25.413757"
       inkscape:transform-center-y="-11.525271" />
  </g>
</svg>
