<?xml version="1.0" encoding="UTF-8" standalone="no"?>
<!-- Created with Inkscape (http://www.inkscape.org/) -->

<svg
   xmlns:dc="http://purl.org/dc/elements/1.1/"
   xmlns:cc="http://creativecommons.org/ns#"
   xmlns:rdf="http://www.w3.org/1999/02/22-rdf-syntax-ns#"
   xmlns:svg="http://www.w3.org/2000/svg"
   xmlns="http://www.w3.org/2000/svg"
   xmlns:sodipodi="http://sodipodi.sourceforge.net/DTD/sodipodi-0.dtd"
   xmlns:inkscape="http://www.inkscape.org/namespaces/inkscape"
   width="64"
   height="48"
   id="svg2"
   version="1.1"
   inkscape:version="0.48.2 r9819"
   sodipodi:docname="up1.svg">
  <defs
     id="defs4" />
  <sodipodi:namedview
     id="base"
     pagecolor="#ffffff"
     bordercolor="#666666"
     borderopacity="1.0"
     inkscape:pageopacity="0.0"
     inkscape:pageshadow="2"
     inkscape:zoom="11.75"
     inkscape:cx="32"
     inkscape:cy="24"
     inkscape:document-units="px"
     inkscape:current-layer="layer1"
     showgrid="true"
     inkscape:window-width="1280"
     inkscape:window-height="962"
     inkscape:window-x="-8"
     inkscape:window-y="-8"
     inkscape:window-maximized="1"
     objecttolerance="20"
     showguides="true"
     inkscape:snap-from-guide="false"
     gridtolerance="10000">
    <inkscape:grid
       type="xygrid"
       id="grid2989"
       empspacing="8"
       visible="true"
       enabled="true"
       snapvisiblegridlinesonly="true"
       originx="2.7755576e-017px"
       originy="2.7755576e-017px" />
  </sodipodi:namedview>
  <metadata
     id="metadata7">
    <rdf:RDF>
      <cc:Work
         rdf:about="">
        <dc:format>image/svg+xml</dc:format>
        <dc:type
           rdf:resource="http://purl.org/dc/dcmitype/StillImage" />
        <dc:title />
      </cc:Work>
    </rdf:RDF>
  </metadata>
  <g
     inkscape:label="レイヤー 1"
     inkscape:groupmode="layer"
     id="layer1"
     transform="translate(0,-1004.3622)">
    <path
       style="fill:#a4c639;fill-opacity:1;fill-rule:evenodd;stroke:#ffffff;stroke-opacity:1"
       d="M 24.84375 5.3125 C 24.789556 5.3230789 24.736354 5.3421664 24.6875 5.375 C 24.492082 5.5063343 24.462416 5.7733325 24.59375 5.96875 L 26.5625 8.9375 C 23.208159 10.688518 20.9375 14.001549 20.9375 17.8125 L 43.0625 17.8125 C 43.0625 14.001549 40.791841 10.688518 37.4375 8.9375 L 39.40625 5.96875 C 39.537584 5.7733325 39.507918 5.5063343 39.3125 5.375 C 39.117082 5.2436657 38.850084 5.3045825 38.71875 5.5 L 36.65625 8.5625 C 35.242775 7.9563631 33.661179 7.59375 32 7.59375 C 30.338821 7.59375 28.757225 7.9563631 27.34375 8.5625 L 25.28125 5.5 C 25.182749 5.3534369 25.006332 5.2807634 24.84375 5.3125 z M 17.5625 17.8125 C 16.1498 17.8125 15 18.93105 15 20.34375 L 15 31.40625 C 15 32.81895 16.1498 33.9375 17.5625 33.9375 C 18.9752 33.9375 20.09375 32.81895 20.09375 31.40625 L 20.09375 20.34375 C 20.09375 18.93105 18.9752 17.8125 17.5625 17.8125 z M 46.4375 17.8125 C 45.0248 17.8125 43.90625 18.93105 43.90625 20.34375 L 43.90625 31.40625 C 43.90625 32.81895 45.0248 33.9375 46.4375 33.9375 C 47.8502 33.9375 49 32.81895 49 31.40625 L 49 20.34375 C 49 18.93105 47.8502 17.8125 46.4375 17.8125 z M 20.9375 18.65625 L 20.9375 21.1875 L 20.9375 34.8125 C 20.9375 36.2252 22.0873 37.34375 23.5 37.34375 L 25.1875 37.34375 L 25.1875 42.25 C 25.1875 43.771369 26.3373 45 27.75 45 C 29.1627 45 30.3125 43.771369 30.3125 42.25 L 30.3125 37.34375 L 33.6875 37.34375 L 33.6875 42.25 C 33.6875 43.771369 34.8373 45 36.25 45 C 37.6627 45 38.8125 43.771369 38.8125 42.25 L 38.8125 37.34375 L 40.5 37.34375 C 41.9127 37.34375 43.0625 36.2252 43.0625 34.8125 L 43.0625 21.1875 L 43.0625 18.65625 L 40.5 18.65625 L 23.5 18.65625 L 20.9375 18.65625 z "
       transform="translate(0,1004.3622)"
       id="path6691" />
    <path
       id="path3859"
       d="m 32,1011.9622 c -6.240818,0 -11.3,4.5667 -11.3,10.2 l 22.6,0 c 0,-5.6333 -5.059182,-10.2 -11.3,-10.2 z"
       style="fill:#ffffff;fill-opacity:1;fill-rule:evenodd;stroke:none"
       inkscape:connector-curvature="0" />
    <path
       inkscape:connector-curvature="0"
       style="fill:#a4c639;fill-opacity:1;fill-rule:evenodd;stroke:none"
       d="m 32,1011.9622 c -6.102747,0 -11.05,4.5667 -11.05,10.2 l 22.1,0 c 0,-5.6333 -4.947253,-10.2 -11.05,-10.2 z"
       id="path3004" />
    <path
       inkscape:connector-curvature="0"
       id="path3849"
       d="m 20.7,1023.0122 0,2.55 0,13.6 c 0,1.4127 1.163031,2.55 2.607692,2.55 l 17.384616,0 c 1.444661,0 2.607692,-1.1373 2.607692,-2.55 l 0,-13.6 0,-2.55 -2.607692,0 -17.384616,0 -2.607692,0 z"
       style="fill:#ffffff;fill-opacity:1;stroke:none" />
    <path
       style="fill:#a4c639;fill-opacity:1;stroke:none"
       d="m 20.95,1023.0122 0,2.55 0,13.6 c 0,1.4127 1.1373,2.55 2.55,2.55 l 17,0 c 1.4127,0 2.55,-1.1373 2.55,-2.55 l 0,-13.6 0,-2.55 -2.55,0 -17,0 -2.55,0 z"
       id="rect3783"
       inkscape:connector-curvature="0" />
    <rect
       style="fill:#a4c639;fill-opacity:1;stroke:none"
       id="rect3786"
       width="5.0999999"
       height="11.9"
       x="25.200001"
       y="1037.4622"
       rx="2.55"
       ry="2.7461538" />
    <rect
       ry="2.7461538"
       rx="2.55"
       y="1037.4622"
       x="33.700001"
       height="11.9"
       width="5.0999999"
       id="rect3788"
       style="fill:#a4c639;fill-opacity:1;stroke:none" />
    <rect
       ry="2.55"
       rx="2.55"
       y="1022.1623"
       x="43.900002"
       height="16.150015"
       width="5.0999999"
       id="rect3843"
       style="fill:#a4c639;fill-opacity:1;stroke:#ffffff;stroke-width:0.5;stroke-miterlimit:4;stroke-opacity:1;stroke-dasharray:none" />
    <rect
       style="fill:#a4c639;fill-opacity:1;stroke:none"
       id="rect3790"
       width="5.0999999"
       height="16.150015"
       x="43.900002"
       y="1022.1623"
       rx="2.55"
       ry="2.55" />
    <rect
       style="fill:#a4c639;fill-opacity:1;stroke:#ffffff;stroke-width:0.5;stroke-miterlimit:4;stroke-opacity:1;stroke-dasharray:none"
       id="rect3833"
       width="5.0999999"
       height="16.150015"
       x="15"
       y="1022.1623"
       rx="2.55"
       ry="2.55" />
    <rect
       ry="2.55"
       rx="2.55"
       y="1022.1623"
       x="15"
       height="16.150015"
       width="5.0999999"
       id="rect3792"
       style="fill:#a4c639;fill-opacity:1;stroke:none" />
    <rect
       style="fill:#a4c639;fill-opacity:1;stroke:none"
       id="rect3794"
       width="0.85000002"
       height="5.9499998"
       x="-543.16144"
       y="851.84369"
       rx="2.55"
       ry="0.42500001"
       transform="matrix(0.82997462,-0.55780116,0.55780116,0.82997462,0,0)"
       inkscape:transform-center-x="0.93638422"
       inkscape:transform-center-y="-1.5022958" />
    <rect
       inkscape:transform-center-y="-1.5023065"
       inkscape:transform-center-x="0.93637482"
       transform="matrix(-0.82997462,-0.55780116,-0.55780116,0.82997462,0,0)"
       ry="0.42500001"
       rx="2.55"
       y="816.14441"
       x="-596.27979"
       height="5.9499998"
       width="0.85000002"
       id="rect3809"
       style="fill:#a4c639;fill-opacity:1;stroke:none" />
  </g>
</svg>
