<?xml version="1.0" encoding="UTF-8" standalone="no"?>
<!-- Created with Inkscape (http://www.inkscape.org/) -->

<svg
   xmlns:dc="http://purl.org/dc/elements/1.1/"
   xmlns:cc="http://creativecommons.org/ns#"
   xmlns:rdf="http://www.w3.org/1999/02/22-rdf-syntax-ns#"
   xmlns:svg="http://www.w3.org/2000/svg"
   xmlns="http://www.w3.org/2000/svg"
   xmlns:sodipodi="http://sodipodi.sourceforge.net/DTD/sodipodi-0.dtd"
   xmlns:inkscape="http://www.inkscape.org/namespaces/inkscape"
   width="64"
   height="48"
   id="svg2"
   version="1.1"
   inkscape:version="0.48.2 r9819"
   sodipodi:docname="up2.svg">
  <defs
     id="defs4" />
  <sodipodi:namedview
     id="base"
     pagecolor="#ffffff"
     bordercolor="#666666"
     borderopacity="1.0"
     inkscape:pageopacity="0.0"
     inkscape:pageshadow="2"
     inkscape:zoom="11.75"
     inkscape:cx="32"
     inkscape:cy="24"
     inkscape:document-units="px"
     inkscape:current-layer="layer1"
     showgrid="true"
     inkscape:window-width="1280"
     inkscape:window-height="962"
     inkscape:window-x="-8"
     inkscape:window-y="-8"
     inkscape:window-maximized="1"
     objecttolerance="20"
     showguides="true"
     inkscape:snap-from-guide="false"
     gridtolerance="10000">
    <inkscape:grid
       type="xygrid"
       id="grid2989"
       empspacing="8"
       visible="true"
       enabled="true"
       snapvisiblegridlinesonly="true"
       originx="2.7755576e-017px"
       originy="2.7755576e-017px" />
  </sodipodi:namedview>
  <metadata
     id="metadata7">
    <rdf:RDF>
      <cc:Work
         rdf:about="">
        <dc:format>image/svg+xml</dc:format>
        <dc:type
           rdf:resource="http://purl.org/dc/dcmitype/StillImage" />
        <dc:title />
      </cc:Work>
    </rdf:RDF>
  </metadata>
  <g
     inkscape:label="レイヤー 1"
     inkscape:groupmode="layer"
     id="layer1"
     transform="translate(0,-1004.3622)">
    <path
       style="fill:#a4c639;fill-opacity:1;fill-rule:evenodd;stroke:#ffffff;stroke-opacity:1"
       d="M 36.09375 4.71875 C 35.989947 4.7508005 35.89873 4.8334022 35.84375 4.9375 L 34.125 8.1875 C 32.659666 7.7376317 31.052308 7.5751851 29.40625 7.75 C 27.747786 7.9261598 26.220377 8.4304833 24.875 9.1875 L 22.53125 6.34375 C 22.380011 6.1632964 22.086704 6.1612611 21.90625 6.3125 C 21.725796 6.4637389 21.723761 6.7257964 21.875 6.90625 L 24.15625 9.625 C 21.003578 11.720206 19.097359 15.2715 19.5 19.0625 L 41.46875 16.71875 C 41.065668 12.923592 38.465815 9.8528273 34.9375 8.46875 L 36.59375 5.34375 C 36.703711 5.1355545 36.645696 4.8599606 36.4375 4.75 C 36.333402 4.6950197 36.197553 4.6866995 36.09375 4.71875 z M 44.84375 16.34375 C 43.438951 16.492953 42.431313 17.60858 42.5625 18.84375 L 43.59375 28.5 C 43.724937 29.73517 44.938951 30.617953 46.34375 30.46875 C 47.748549 30.319547 48.787437 29.20392 48.65625 27.96875 L 47.625 18.3125 C 47.493813 17.07733 46.248549 16.194547 44.84375 16.34375 z M 41.5625 17.5625 L 39.03125 17.8125 L 22.125 19.625 L 19.59375 19.90625 L 19.84375 22.4375 L 21.28125 35.9375 C 21.430453 37.3423 22.688951 38.36795 24.09375 38.21875 L 25.1875 38.09375 L 25.1875 41.5 C 25.1875 42.893528 26.3373 44 27.75 44 C 29.1627 44 30.3125 42.893528 30.3125 41.5 L 30.3125 37.5625 L 33.6875 37.21875 L 33.6875 42.25 C 33.6875 43.771369 34.8373 45 36.25 45 C 37.6627 45 38.8125 43.771369 38.8125 42.25 L 38.8125 36.65625 L 41 36.4375 C 42.404799 36.2883 43.430453 35.0298 43.28125 33.625 L 41.84375 20.09375 L 41.5625 17.5625 z M 16.125 19.40625 C 14.720201 19.555453 13.681313 20.67108 13.8125 21.90625 L 14.84375 31.5625 C 14.974937 32.79767 16.220201 33.680453 17.625 33.53125 C 19.029799 33.382047 20.037437 32.26642 19.90625 31.03125 L 18.875 21.375 C 18.743813 20.13983 17.529799 19.257047 16.125 19.40625 z "
       transform="translate(0,1004.3622)"
       id="path7268" />
    <path
       id="path3859"
       d="m 29.408575,1012.0994 c -6.205913,0.6592 -10.754484,5.7346 -10.159519,11.3364 l 22.473599,-2.3869 c -0.594966,-5.6018 -6.108167,-9.6086 -12.31408,-8.9495 z"
       style="fill:#ffffff;fill-opacity:1;fill-rule:evenodd;stroke:none"
       inkscape:connector-curvature="0" />
    <path
       inkscape:connector-curvature="0"
       style="fill:#a4c639;fill-opacity:1;fill-rule:evenodd;stroke:none"
       d="m 29.408575,1012.0994 c -6.068615,0.6446 -10.505882,5.7082 -9.910917,11.31 l 21.976395,-2.3341 c -0.594965,-5.6018 -5.996864,-9.6204 -12.065478,-8.9759 z"
       id="path3004" />
    <path
       inkscape:connector-curvature="0"
       id="path3849"
       d="m 19.338829,1024.2811 0.26932,2.5357 1.436374,13.524 c 0.149203,1.4048 1.425846,2.4129 2.862427,2.2603 l 17.287385,-1.8361 c 1.436581,-0.1526 2.47299,-1.4064 2.323787,-2.8112 l -1.436374,-13.5239 -0.26932,-2.5357 -2.593107,0.2754 -17.287385,1.8361 -2.593107,0.2754 z"
       style="fill:#ffffff;fill-opacity:1;stroke:none" />
    <path
       style="fill:#a4c639;fill-opacity:1;stroke:none"
       d="m 19.587431,1024.2547 0.26932,2.5357 1.436374,13.524 c 0.149203,1.4048 1.400259,2.4156 2.805058,2.2664 l 16.904919,-1.7955 c 1.404799,-0.1492 2.415621,-1.4003 2.266418,-2.8051 l -1.436374,-13.5239 -0.26932,-2.5357 -2.535738,0.2693 -16.904919,1.7955 -2.535738,0.2693 z"
       id="rect3783"
       inkscape:connector-curvature="0" />
    <rect
       style="fill:#a4c639;fill-opacity:1;stroke:none"
       id="rect3786"
       width="5.0999999"
       height="10.900042"
       x="25.200001"
       y="1037.4622"
       rx="2.55"
       ry="2.5153942" />
    <rect
       ry="2.7461538"
       rx="2.55"
       y="1037.4622"
       x="33.700001"
       height="11.9"
       width="5.0999999"
       id="rect3788"
       style="fill:#a4c639;fill-opacity:1;stroke:none" />
    <rect
       ry="2.2420886"
       rx="2.55"
       y="1019.7449"
       x="-65.749512"
       height="14.199907"
       width="5.0999999"
       id="rect3843"
       style="fill:#a4c639;fill-opacity:1;stroke:#ffffff;stroke-width:0.46884176;stroke-miterlimit:4;stroke-opacity:1;stroke-dasharray:none"
       transform="matrix(0.99440702,-0.10561572,0.10561572,0.99440702,0,0)" />
    <rect
       style="fill:#a4c639;fill-opacity:1;stroke:none"
       id="rect3790"
       width="5.0999999"
       height="14.199907"
       x="-65.749512"
       y="1019.7449"
       rx="2.55"
       ry="2.2420886"
       transform="matrix(0.99440702,-0.10561572,0.10561572,0.99440702,0,0)" />
    <rect
       style="fill:#a4c639;fill-opacity:1;stroke:#ffffff;stroke-width:0.46884176;stroke-miterlimit:4;stroke-opacity:1;stroke-dasharray:none"
       id="rect3833"
       width="5.0999999"
       height="14.199907"
       x="-94.649513"
       y="1019.7449"
       rx="2.55"
       ry="2.2420886"
       transform="matrix(0.99440702,-0.10561572,0.10561572,0.99440702,0,0)" />
    <rect
       ry="2.2420886"
       rx="2.55"
       y="1019.7449"
       x="-94.649513"
       height="14.199907"
       width="5.0999999"
       id="rect3792"
       style="fill:#a4c639;fill-opacity:1;stroke:none"
       transform="matrix(0.99440702,-0.10561572,0.10561572,0.99440702,0,0)" />
    <rect
       style="fill:#a4c639;fill-opacity:1;stroke:none"
       id="rect3794"
       width="0.85000002"
       height="5.9499998"
       x="-632.81934"
       y="788.67468"
       rx="2.55"
       ry="0.42500001"
       transform="matrix(0.76642001,-0.64233976,0.64233976,0.76642001,0,0)"
       inkscape:transform-center-x="8.1716069"
       inkscape:transform-center-y="-23.550325" />
    <rect
       inkscape:transform-center-y="-24.741394"
       inkscape:transform-center-x="-3.0425298"
       transform="matrix(-0.88424516,-0.46702302,-0.46702302,0.88424516,0,0)"
       ry="0.42500001"
       rx="2.55"
       y="875.30066"
       x="-503.92505"
       height="5.9499998"
       width="0.85000002"
       id="rect3809"
       style="fill:#a4c639;fill-opacity:1;stroke:none" />
  </g>
</svg>
