<?xml version="1.0" encoding="UTF-8" standalone="no"?>
<!-- Created with Inkscape (http://www.inkscape.org/) -->

<svg
   xmlns:dc="http://purl.org/dc/elements/1.1/"
   xmlns:cc="http://creativecommons.org/ns#"
   xmlns:rdf="http://www.w3.org/1999/02/22-rdf-syntax-ns#"
   xmlns:svg="http://www.w3.org/2000/svg"
   xmlns="http://www.w3.org/2000/svg"
   xmlns:sodipodi="http://sodipodi.sourceforge.net/DTD/sodipodi-0.dtd"
   xmlns:inkscape="http://www.inkscape.org/namespaces/inkscape"
   width="64"
   height="48"
   id="svg2"
   version="1.1"
   inkscape:version="0.48.2 r9819"
   sodipodi:docname="upleft2.svg">
  <defs
     id="defs4" />
  <sodipodi:namedview
     id="base"
     pagecolor="#ffffff"
     bordercolor="#666666"
     borderopacity="1.0"
     inkscape:pageopacity="0.0"
     inkscape:pageshadow="2"
     inkscape:zoom="11.75"
     inkscape:cx="32"
     inkscape:cy="24"
     inkscape:document-units="px"
     inkscape:current-layer="layer1"
     showgrid="true"
     inkscape:window-width="1280"
     inkscape:window-height="962"
     inkscape:window-x="-8"
     inkscape:window-y="-8"
     inkscape:window-maximized="1"
     objecttolerance="20"
     showguides="true"
     inkscape:snap-from-guide="false"
     gridtolerance="10000">
    <inkscape:grid
       type="xygrid"
       id="grid2989"
       empspacing="8"
       visible="true"
       enabled="true"
       snapvisiblegridlinesonly="true"
       originx="2.7755576e-017px"
       originy="2.7755576e-017px" />
  </sodipodi:namedview>
  <metadata
     id="metadata7">
    <rdf:RDF>
      <cc:Work
         rdf:about="">
        <dc:format>image/svg+xml</dc:format>
        <dc:type
           rdf:resource="http://purl.org/dc/dcmitype/StillImage" />
        <dc:title />
      </cc:Work>
    </rdf:RDF>
  </metadata>
  <g
     inkscape:label="レイヤー 1"
     inkscape:groupmode="layer"
     id="layer1"
     transform="translate(0,-1004.3622)">
    <path
       style="fill:#a4c639;fill-opacity:1;stroke:#ffffff;stroke-opacity:1"
       d="M 25.46875 5.3125 C 25.413587 5.3100568 25.367699 5.3233069 25.3125 5.34375 C 25.091706 5.4255222 24.980728 5.654206 25.0625 5.875 L 26.25 9.0625 C 23.019591 10.842707 20.84375 14.087243 20.84375 17.8125 L 21.03125 17.8125 C 20.865218 17.847639 20.693243 17.929706 20.53125 18 C 19.235302 18.562353 18.656397 20.047802 19.21875 21.34375 L 20.84375 25.0625 L 20.84375 34.8125 C 20.84375 36.2252 21.99355 37.34375 23.40625 37.34375 L 24.5 37.34375 L 23.75 40.59375 C 23.427976 41.94956 24.281787 43.298546 25.65625 43.625 C 27.030713 43.951454 28.396726 43.13706 28.71875 41.78125 L 29.75 37.34375 L 33.5 37.34375 L 34.34375 42.5 C 34.588515 44.001551 35.886953 45.039782 37.28125 44.8125 C 38.675547 44.585218 39.619765 43.189051 39.375 41.6875 L 38.65625 37.34375 L 40.40625 37.34375 C 41.81895 37.34375 42.9375 36.2252 42.9375 34.8125 L 42.9375 25.375 L 44.6875 21.34375 C 45.249481 20.047641 44.671109 18.561981 43.375 18 C 43.212986 17.929752 43.041042 17.847591 42.875 17.8125 L 42.9375 17.8125 C 42.9375 13.343989 39.833263 9.5355679 35.5 8.15625 L 36.1875 5.84375 C 36.254267 5.6179651 36.132035 5.4105172 35.90625 5.34375 C 35.680465 5.2769828 35.441767 5.3992151 35.375 5.625 L 34.6875 7.9375 C 33.795955 7.7233208 32.870434 7.59375 31.90625 7.59375 C 30.144853 7.59375 28.477717 8.0108093 27 8.6875 L 25.84375 5.59375 C 25.782421 5.4281545 25.634238 5.3198296 25.46875 5.3125 z M 22.03125 17.8125 L 41.875 17.8125 C 41.308816 17.918025 40.788508 18.207335 40.40625 18.65625 L 23.46875 18.65625 C 23.086977 18.211881 22.594127 17.917242 22.03125 17.8125 z "
       transform="translate(0,1004.3622)"
       id="rect9003" />
    <rect
       style="fill:#a4c639;fill-opacity:1;stroke:#ffffff;stroke-width:0.5;stroke-miterlimit:4;stroke-opacity:1;stroke-dasharray:none"
       id="rect3833"
       width="5.0999999"
       height="16.150015"
       x="-449.02899"
       y="920.72339"
       rx="2.55"
       ry="2.55"
       transform="matrix(-0.91746937,-0.39780644,-0.39780644,0.91746937,0,0)" />
    <rect
       ry="2.55"
       rx="2.55"
       y="920.72339"
       x="-449.02899"
       height="16.150015"
       width="5.0999999"
       id="rect3792"
       style="fill:#a4c639;fill-opacity:1;stroke:none"
       transform="matrix(-0.91746937,-0.39780644,-0.39780644,0.91746937,0,0)" />
    <path
       id="path3859"
       d="m 31.899244,1011.9622 c 6.240818,0 11.3,4.5667 11.3,10.2 l -22.6,0 c 0,-5.6333 5.059182,-10.2 11.3,-10.2 z"
       style="fill:#ffffff;fill-opacity:1;fill-rule:evenodd;stroke:none"
       inkscape:connector-curvature="0" />
    <path
       inkscape:connector-curvature="0"
       style="fill:#a4c639;fill-opacity:1;fill-rule:evenodd;stroke:none"
       d="m 31.899244,1011.9622 c 6.102747,0 11.05,4.5667 11.05,10.2 l -22.1,0 c 0,-5.6333 4.947253,-10.2 11.05,-10.2 z"
       id="path3004" />
    <path
       inkscape:connector-curvature="0"
       id="path3849"
       d="m 43.199244,1022.7622 0,2.5841 0,13.7818 c 0,1.4316 -1.163031,2.5841 -2.607692,2.5841 l -17.384616,0 c -1.444661,0 -2.607692,-1.1525 -2.607692,-2.5841 l 0,-13.7818 0,-2.5841 2.607692,0 17.384616,0 2.607692,0 z"
       style="fill:#ffffff;fill-opacity:1;stroke:none" />
    <path
       style="fill:#a4c639;fill-opacity:1;stroke:none"
       d="m 42.949244,1023.0122 0,2.55 0,13.6 c 0,1.4127 -1.1373,2.55 -2.55,2.55 l -17,0 c -1.4127,0 -2.55,-1.1373 -2.55,-2.55 l 0,-13.6 0,-2.55 2.55,0 17,0 2.55,0 z"
       id="rect3783"
       inkscape:connector-curvature="0" />
    <rect
       style="fill:#a4c639;fill-opacity:1;stroke:none"
       id="rect3786"
       width="5.0999999"
       height="11.9"
       x="129.43567"
       y="1029.6017"
       rx="2.55"
       ry="2.7461538"
       inkscape:transform-center-y="8.7899504"
       transform="matrix(-0.98697321,0.16088468,0.16088468,0.98697321,0,0)"
       inkscape:transform-center-x="-1.432838" />
    <rect
       ry="2.5153942"
       rx="2.55"
       y="1002.7976"
       x="-269.68195"
       height="10.900042"
       width="5.0999999"
       id="rect3788"
       style="fill:#a4c639;fill-opacity:1;stroke:none"
       inkscape:transform-center-y="8.0534442"
       transform="matrix(-0.9729335,-0.23108528,-0.23108528,0.9729335,0,0)"
       inkscape:transform-center-x="1.9128098" />
    <rect
       style="fill:#a4c639;fill-opacity:1;stroke:none"
       id="rect3794"
       width="0.85000002"
       height="5.9499998"
       x="-321.17502"
       y="958.06458"
       rx="2.55"
       ry="0.42500001"
       transform="matrix(-0.95895068,-0.28357289,-0.28357289,0.95895068,0,0)"
       inkscape:transform-center-x="-0.44337189"
       inkscape:transform-center-y="-1.7138142" />
    <rect
       inkscape:transform-center-y="-1.9594135"
       inkscape:transform-center-x="0.69516986"
       transform="matrix(0.93775337,-0.34730192,0.34730192,0.93775337,0,0)"
       ry="0.42500001"
       rx="2.55"
       y="955.64215"
       x="-327.35983"
       height="5.9499998"
       width="0.85000002"
       id="rect3809"
       style="fill:#a4c639;fill-opacity:1;stroke:none" />
    <rect
       ry="2.55"
       rx="2.55"
       y="946.03168"
       x="385.57538"
       height="16.150015"
       width="5.0999999"
       id="rect3843"
       style="fill:#a4c639;fill-opacity:1;stroke:#ffffff;stroke-width:0.5;stroke-miterlimit:4;stroke-opacity:1;stroke-dasharray:none"
       transform="matrix(-0.91735527,0.39806949,0.39806949,0.91735527,0,0)" />
    <rect
       style="fill:#a4c639;fill-opacity:1;stroke:none"
       id="rect3790"
       width="5.0999999"
       height="16.150015"
       x="385.57538"
       y="946.03168"
       rx="2.55"
       ry="2.55"
       transform="matrix(-0.91735527,0.39806949,0.39806949,0.91735527,0,0)" />
    <path
       transform="matrix(0.70833334,0,0,0.70834513,11.47191,1010.2057)"
       d="m 20.5,10 c 0,0.828427 -0.671573,1.5 -1.5,1.5 -0.828427,0 -1.5,-0.671573 -1.5,-1.5 0,-0.8284271 0.671573,-1.5 1.5,-1.5 0.828427,0 1.5,0.6715729 1.5,1.5 z"
       sodipodi:ry="1.5"
       sodipodi:rx="1.5"
       sodipodi:cy="10"
       sodipodi:cx="19"
       id="path3811"
       style="fill:#ffffff;fill-opacity:1;stroke:none"
       sodipodi:type="arc" />
  </g>
</svg>
