<?xml version="1.0" encoding="UTF-8" standalone="no"?>
<!-- Created with Inkscape (http://www.inkscape.org/) -->

<svg
   xmlns:dc="http://purl.org/dc/elements/1.1/"
   xmlns:cc="http://creativecommons.org/ns#"
   xmlns:rdf="http://www.w3.org/1999/02/22-rdf-syntax-ns#"
   xmlns:svg="http://www.w3.org/2000/svg"
   xmlns="http://www.w3.org/2000/svg"
   xmlns:sodipodi="http://sodipodi.sourceforge.net/DTD/sodipodi-0.dtd"
   xmlns:inkscape="http://www.inkscape.org/namespaces/inkscape"
   width="64"
   height="48"
   id="svg2"
   version="1.1"
   inkscape:version="0.48.2 r9819"
   sodipodi:docname="upleft3.svg">
  <defs
     id="defs4" />
  <sodipodi:namedview
     id="base"
     pagecolor="#ffffff"
     bordercolor="#666666"
     borderopacity="1.0"
     inkscape:pageopacity="0.0"
     inkscape:pageshadow="2"
     inkscape:zoom="11.75"
     inkscape:cx="32"
     inkscape:cy="24"
     inkscape:document-units="px"
     inkscape:current-layer="layer1"
     showgrid="true"
     inkscape:window-width="1280"
     inkscape:window-height="962"
     inkscape:window-x="-8"
     inkscape:window-y="-8"
     inkscape:window-maximized="1"
     objecttolerance="20"
     showguides="true"
     inkscape:snap-from-guide="false"
     gridtolerance="10000">
    <inkscape:grid
       type="xygrid"
       id="grid2989"
       empspacing="8"
       visible="true"
       enabled="true"
       snapvisiblegridlinesonly="true"
       originx="2.7755576e-017px"
       originy="2.7755576e-017px" />
  </sodipodi:namedview>
  <metadata
     id="metadata7">
    <rdf:RDF>
      <cc:Work
         rdf:about="">
        <dc:format>image/svg+xml</dc:format>
        <dc:type
           rdf:resource="http://purl.org/dc/dcmitype/StillImage" />
        <dc:title />
      </cc:Work>
    </rdf:RDF>
  </metadata>
  <g
     inkscape:label="レイヤー 1"
     inkscape:groupmode="layer"
     id="layer1"
     transform="translate(0,-1004.3622)">
    <path
       style="fill:#a4c639;fill-opacity:1;stroke:#ffffff;stroke-opacity:1"
       d="M 25.4375 5.3125 C 25.382337 5.3100568 25.336449 5.3233069 25.28125 5.34375 C 25.060456 5.4255222 24.949478 5.654206 25.03125 5.875 L 26.21875 9.0625 C 22.988341 10.842707 20.8125 14.087243 20.8125 17.8125 C 20.008711 17.963846 19.287242 18.501785 18.9375 19.3125 L 14.5625 29.46875 C 14.002913 30.765895 14.609105 32.252913 15.90625 32.8125 C 17.203395 33.372087 18.690413 32.765895 19.25 31.46875 L 20.8125 27.84375 L 20.8125 34.8125 C 20.8125 36.2252 21.9623 37.34375 23.375 37.34375 L 25.125 37.34375 L 24.40625 41.6875 C 24.161485 43.189051 25.074453 44.585218 26.46875 44.8125 C 27.863047 45.039782 29.192735 44.001551 29.4375 42.5 L 30.28125 37.34375 L 34 37.34375 L 35.0625 41.78125 C 35.384524 43.13706 36.750537 43.951454 38.125 43.625 C 39.499463 43.298546 40.353274 41.94956 40.03125 40.59375 L 39.25 37.34375 L 40.375 37.34375 C 41.7877 37.34375 42.90625 36.2252 42.90625 34.8125 L 42.90625 27.53125 L 44.625 31.46875 C 45.188022 32.764407 46.673093 33.375522 47.96875 32.8125 C 49.264407 32.249478 49.875522 30.733157 49.3125 29.4375 L 44.90625 19.3125 C 44.536836 18.462382 43.758942 17.928619 42.90625 17.8125 C 42.90625 13.341068 39.806441 9.5333053 35.46875 8.15625 L 36.15625 5.84375 C 36.223017 5.6179651 36.100785 5.4105172 35.875 5.34375 C 35.649215 5.2769828 35.410517 5.3992151 35.34375 5.625 L 34.65625 7.9375 C 33.764705 7.7233208 32.839184 7.59375 31.875 7.59375 C 30.113603 7.59375 28.446467 8.0108093 26.96875 8.6875 L 25.84375 5.59375 C 25.782421 5.4281545 25.602988 5.3198296 25.4375 5.3125 z M 21.8125 17.8125 L 42.28125 17.8125 C 42.031679 17.839954 41.774186 17.894433 41.53125 18 C 41.171813 18.156191 40.8975 18.380614 40.65625 18.65625 L 40.375 18.65625 L 23.375 18.65625 L 23.1875 18.65625 C 22.944999 18.379553 22.642749 18.1247 22.28125 17.96875 C 22.119107 17.898802 21.978606 17.847285 21.8125 17.8125 z "
       transform="translate(0,1004.3622)"
       id="rect9582" />
    <rect
       style="fill:#a4c639;fill-opacity:1;stroke:#ffffff;stroke-width:0.5;stroke-miterlimit:4;stroke-opacity:1;stroke-dasharray:none"
       id="rect3833"
       width="5.0999999"
       height="16.150015"
       x="366.79742"
       y="954.20374"
       rx="2.55"
       ry="2.55"
       transform="matrix(-0.91714969,0.3985429,0.3985429,0.91714969,0,0)" />
    <rect
       ry="2.55"
       rx="2.55"
       y="954.20374"
       x="366.79742"
       height="16.150015"
       width="5.0999999"
       id="rect3792"
       style="fill:#a4c639;fill-opacity:1;stroke:none"
       transform="matrix(-0.91714969,0.3985429,0.3985429,0.91714969,0,0)" />
    <path
       id="path3859"
       d="m 31.871714,1011.9622 c 6.240818,0 11.3,4.5667 11.3,10.2 l -22.6,0 c 0,-5.6333 5.059182,-10.2 11.3,-10.2 z"
       style="fill:#ffffff;fill-opacity:1;fill-rule:evenodd;stroke:none"
       inkscape:connector-curvature="0" />
    <path
       inkscape:connector-curvature="0"
       style="fill:#a4c639;fill-opacity:1;fill-rule:evenodd;stroke:none"
       d="m 31.871714,1011.9622 c 6.102747,0 11.05,4.5667 11.05,10.2 l -22.1,0 c 0,-5.6333 4.947253,-10.2 11.05,-10.2 z"
       id="path3004" />
    <path
       inkscape:connector-curvature="0"
       id="path3849"
       d="m 20.571714,1022.7622 0,2.5841 0,13.7818 c 0,1.4316 1.163031,2.5841 2.607692,2.5841 l 17.384616,0 c 1.444661,0 2.607692,-1.1525 2.607692,-2.5841 l 0,-13.7818 0,-2.5841 -2.607692,0 -17.384616,0 -2.607692,0 z"
       style="fill:#ffffff;fill-opacity:1;stroke:none" />
    <path
       style="fill:#a4c639;fill-opacity:1;stroke:none"
       d="m 20.821714,1023.0122 0,2.55 0,13.6 c 0,1.4127 1.1373,2.55 2.55,2.55 l 17,0 c 1.4127,0 2.55,-1.1373 2.55,-2.55 l 0,-13.6 0,-2.55 -2.55,0 -17,0 -2.55,0 z"
       id="rect3783"
       inkscape:connector-curvature="0" />
    <rect
       style="fill:#a4c639;fill-opacity:1;stroke:none"
       id="rect3786"
       width="5.0999999"
       height="11.9"
       x="192.3759"
       y="1019.3418"
       rx="2.55"
       ry="2.7461538"
       inkscape:transform-center-y="8.7898351"
       transform="matrix(0.98697321,0.16088468,-0.16088468,0.98697321,0,0)"
       inkscape:transform-center-x="1.4328153" />
    <rect
       ry="2.5153942"
       rx="2.55"
       y="1017.5342"
       x="-207.63704"
       height="10.900042"
       width="5.0999999"
       id="rect3788"
       style="fill:#a4c639;fill-opacity:1;stroke:none"
       inkscape:transform-center-y="8.0534844"
       transform="matrix(0.9729335,-0.23108528,0.23108528,0.9729335,0,0)"
       inkscape:transform-center-x="-1.9128246" />
    <rect
       style="fill:#a4c639;fill-opacity:1;stroke:none"
       id="rect3794"
       width="0.85000002"
       height="5.9499998"
       x="-321.14862"
       y="958.07239"
       rx="2.55"
       ry="0.42500001"
       transform="matrix(-0.95895068,-0.28357289,-0.28357289,0.95895068,0,0)"
       inkscape:transform-center-x="-0.44337262"
       inkscape:transform-center-y="-1.7138081" />
    <rect
       inkscape:transform-center-y="-1.9593757"
       inkscape:transform-center-x="0.69515724"
       transform="matrix(0.93775337,-0.34730192,0.34730192,0.93775337,0,0)"
       ry="0.42500001"
       rx="2.55"
       y="955.63263"
       x="-327.38565"
       height="5.9499998"
       width="0.85000002"
       id="rect3809"
       style="fill:#a4c639;fill-opacity:1;stroke:none" />
    <rect
       ry="2.55"
       rx="2.55"
       y="929.88959"
       x="-427.98383"
       height="16.150015"
       width="5.0999999"
       id="rect3843"
       style="fill:#a4c639;fill-opacity:1;stroke:#ffffff;stroke-width:0.5;stroke-miterlimit:4;stroke-opacity:1;stroke-dasharray:none"
       transform="matrix(-0.9182024,-0.39611155,-0.39611155,0.9182024,0,0)" />
    <rect
       style="fill:#a4c639;fill-opacity:1;stroke:none"
       id="rect3790"
       width="5.0999999"
       height="16.150015"
       x="-427.98383"
       y="929.88959"
       rx="2.55"
       ry="2.55"
       transform="matrix(-0.9182024,-0.39611155,-0.39611155,0.9182024,0,0)" />
    <path
       transform="matrix(0.70833334,0,0,0.70834513,11.44438,1010.2057)"
       d="m 20.5,10 c 0,0.828427 -0.671573,1.5 -1.5,1.5 -0.828427,0 -1.5,-0.671573 -1.5,-1.5 0,-0.8284271 0.671573,-1.5 1.5,-1.5 0.828427,0 1.5,0.6715729 1.5,1.5 z"
       sodipodi:ry="1.5"
       sodipodi:rx="1.5"
       sodipodi:cy="10"
       sodipodi:cx="19"
       id="path3811"
       style="fill:#ffffff;fill-opacity:1;stroke:none"
       sodipodi:type="arc" />
  </g>
</svg>
